<?xml version="1.0" encoding="UTF-8"?>
<svg version="1.1" xmlns="http://www.w3.org/2000/svg" width="512" height="512">
<path d="M0 0 C4.52626966 2.3024937 7.2863273 5.60560609 8.859375 10.3515625 C10.48321297 16.14663425 9.42456324 20.59296392 6.60546875 25.79296875 C4.69072919 29.1114684 2.69121375 32.37530178 0.6875 35.640625 C-20.35566589 70.05352901 -22.52821528 117.17221515 -13.39453125 155.59765625 C-7.34550813 179.25462892 2.63726087 201.84589665 18.859375 220.3515625 C19.67792969 221.3003125 20.49648438 222.2490625 21.33984375 223.2265625 C22.19191406 224.1546875 23.04398437 225.0828125 23.921875 226.0390625 C24.69660156 226.88855469 25.47132813 227.73804688 26.26953125 228.61328125 C28.80302211 230.68301734 28.80302211 230.68301734 32.203125 230.21875 C33.4096875 229.93257812 34.61625 229.64640625 35.859375 229.3515625 C66.15772209 222.93270302 96.88524795 225.84843586 123.62109375 242.23046875 C136.60973482 250.73810699 148.68352289 262.08765041 156.859375 275.3515625 C157.51550781 276.38667969 158.17164063 277.42179687 158.84765625 278.48828125 C164.27227214 287.31015717 167.90874557 296.44433959 170.859375 306.3515625 C171.37177734 308.01445313 171.37177734 308.01445313 171.89453125 309.7109375 C176.61861566 328.43149527 175.93629519 351.00904247 169.859375 369.3515625 C169.65038574 369.99013184 169.44139648 370.62870117 169.22607422 371.28662109 C159.50004254 399.94016612 139.31507972 422.87787336 112.19335938 436.26416016 C96.65809379 443.63581167 81.42625073 446.75050749 64.296875 446.7265625 C63.30817413 446.72574677 63.30817413 446.72574677 62.29949951 446.72491455 C51.31168589 446.68334821 41.31080233 445.72340741 30.859375 442.3515625 C29.84496338 442.03807861 29.84496338 442.03807861 28.81005859 441.71826172 C13.70281479 436.94698884 0.6081062 428.95878768 -11.140625 418.3515625 C-12.05457031 417.53171875 -12.96851563 416.711875 -13.91015625 415.8671875 C-33.95962324 396.9113278 -45.32433318 369.81831309 -46.36328125 342.3984375 C-47.12830796 310.09168708 -36.21932666 282.36871833 -14.3515625 258.62109375 C-11.14584621 255.33042032 -7.86893601 252.05168223 -4.140625 249.3515625 C-3.480625 249.3515625 -2.820625 249.3515625 -2.140625 249.3515625 C-2.95853516 248.36929688 -2.95853516 248.36929688 -3.79296875 247.3671875 C-5.83797816 244.89220176 -7.86765018 242.40578242 -9.88378906 239.90722656 C-11.02378624 238.49618111 -12.17161097 237.09146853 -13.3203125 235.6875 C-35.32795848 207.71441152 -46.60414886 173.28015678 -51.140625 138.3515625 C-51.2950708 137.17883789 -51.2950708 137.17883789 -51.45263672 135.98242188 C-52.04593672 131.44222404 -52.60745404 126.89919715 -53.140625 122.3515625 C-86.9485669 143.18829404 -118.15361558 169.64199118 -142.140625 201.3515625 C-142.5634375 201.90682617 -142.98625 202.46208984 -143.421875 203.03417969 C-161.17695524 226.51804753 -187.06517099 267.55882666 -185.140625 298.3515625 C-184.06425781 298.88523437 -182.98789063 299.41890625 -181.87890625 299.96875 C-154.25727701 313.94002617 -132.85793707 335.8172379 -122.90942383 365.58251953 C-113.34907221 395.56511637 -116.66006114 427.28438726 -130.953125 455.0390625 C-145.90361998 481.22179464 -169.37477138 499.88165795 -198.234375 508.4140625 C-208.0042951 510.86167109 -217.31586545 511.70952741 -227.390625 511.6640625 C-228.67533691 511.65914795 -229.96004883 511.6542334 -231.28369141 511.64916992 C-240.28755605 511.53780663 -248.47132535 510.92948374 -257.140625 508.3515625 C-258.36007812 508.01125 -259.57953125 507.6709375 -260.8359375 507.3203125 C-288.90018404 498.79154764 -312.14704261 479.02550244 -326.140625 453.3515625 C-338.528768 428.93371515 -343.3165588 397.92334736 -335.140625 371.3515625 C-334.94726562 370.69510742 -334.75390625 370.03865234 -334.5546875 369.36230469 C-329.82819501 353.58544781 -322.32036704 339.51986694 -311.140625 327.3515625 C-310.69879883 326.8673584 -310.25697266 326.3831543 -309.80175781 325.88427734 C-291.23057586 305.75580421 -265.7217273 292.29946021 -238.140625 290.3515625 C-231.80597112 290.16402754 -225.47586635 290.2299907 -219.140625 290.3515625 C-219.049021 289.7131543 -218.95741699 289.07474609 -218.86303711 288.41699219 C-209.49050407 225.95100247 -166.13422684 164.58312891 -117.140625 126.3515625 C-115.28371753 124.77144442 -113.42971024 123.18791384 -111.578125 121.6015625 C-95.73846599 108.3881682 -78.2992529 97.13547974 -60.828125 86.2265625 C-59.90153076 85.64519531 -58.97493652 85.06382813 -58.02026367 84.46484375 C-57.1563501 83.92988281 -56.29243652 83.39492187 -55.40234375 82.84375 C-54.62850342 82.36276855 -53.85466309 81.88178711 -53.05737305 81.38623047 C-51.140625 80.3515625 -51.140625 80.3515625 -49.140625 80.3515625 C-49.140625 77.7115625 -49.140625 75.0715625 -49.140625 72.3515625 C-49.65109375 72.78726563 -50.1615625 73.22296875 -50.6875 73.671875 C-70.04222551 89.52627781 -94.39529328 92.86406229 -118.63134766 90.50390625 C-145.41510935 87.40115696 -169.76502182 75.90317857 -190.140625 58.3515625 C-190.89601562 57.72894531 -191.65140625 57.10632812 -192.4296875 56.46484375 C-201.38120489 48.88220101 -209.04171181 39.37260636 -215.140625 29.3515625 C-215.140625 28.6915625 -215.140625 28.0315625 -215.140625 27.3515625 C-207.68183662 25.21592173 -200.22158877 23.08545901 -192.75959492 20.96104908 C-189.29224672 19.97374107 -185.82536657 18.9848573 -182.35961914 17.99194336 C-105.09168302 -4.13803489 -105.09168302 -4.13803489 -75.140625 10.3515625 C-60.78448366 18.51267644 -47.85405651 31.08898992 -43.140625 47.3515625 C-42.480625 47.3515625 -41.820625 47.3515625 -41.140625 47.3515625 C-40.78871094 45.44310547 -40.78871094 45.44310547 -40.4296875 43.49609375 C-39.19505276 37.96618422 -36.99306242 33.11306281 -34.515625 28.0390625 C-33.84901855 26.66137695 -33.84901855 26.66137695 -33.16894531 25.25585938 C-18.02736616 -5.46084449 -18.02736616 -5.46084449 0 0 Z M119.5234375 382.421875 C118.64429688 383.38867188 117.76515625 384.35546875 116.859375 385.3515625 C115.80879772 386.45704567 114.75387519 387.5584109 113.6953125 388.65625 C112.85709961 389.52624634 112.85709961 389.52624634 112.00195312 390.41381836 C104.75333246 397.8476593 97.64217399 403.75525547 88.1015625 408.07421875 C87.46025391 408.37142822 86.81894531 408.6686377 86.15820312 408.97485352 C84.32999263 409.80798853 82.48173756 410.59671855 80.6328125 411.3828125 C77.49981371 413.16257977 77.49981371 413.16257977 76.90234375 416.9453125 C76.61375761 420.20559317 76.61375761 420.20559317 77.796875 422.3515625 C81.10989034 423.95787297 84.38264225 423.11634194 87.859375 422.3515625 C90.45298747 421.38433963 92.82341382 420.14315525 95.234375 418.7890625 C95.88212891 418.43408691 96.52988281 418.07911133 97.19726562 417.71337891 C102.91283837 414.49375762 107.91682725 410.6592876 112.859375 406.3515625 C113.46910156 405.87332031 114.07882812 405.39507812 114.70703125 404.90234375 C120.15941904 400.56775755 125.19249153 395.27179159 128.859375 389.3515625 C129.3229254 385.15844433 129.3229254 385.15844433 127.609375 381.4765625 C124.29949841 379.34878469 122.31843146 379.94470644 119.5234375 382.421875 Z M-292.015625 446.4140625 C-293.67247945 449.26753405 -293.52603325 451.08345787 -293.140625 454.3515625 C-291.52803801 456.57479824 -290.061936 458.31715981 -288.140625 460.2265625 C-287.63442627 460.74903564 -287.12822754 461.27150879 -286.60668945 461.80981445 C-285.58968778 462.85615427 -284.56673978 463.89675111 -283.53759766 464.93115234 C-282.36756365 466.12081642 -281.23889118 467.35096962 -280.12109375 468.58984375 C-272.54461216 476.82658518 -257.97647553 487.73600252 -246.44921875 488.5390625 C-244.1184745 488.51280467 -244.1184745 488.51280467 -242.265625 487.2890625 C-240.87848531 485.24741059 -240.87848531 485.24741059 -241.0078125 482.04296875 C-242.26114475 477.95883436 -242.56367913 477.67907548 -246.078125 475.7265625 C-247.75486013 474.91234406 -249.44318991 474.12169656 -251.140625 473.3515625 C-252.89233823 472.49310487 -254.64109197 471.62857991 -256.38671875 470.7578125 C-257.21929199 470.3453125 -258.05186523 469.9328125 -258.90966797 469.5078125 C-267.98710751 464.80319949 -276.07310073 456.65900123 -282.2421875 448.609375 C-284.01881791 446.09320213 -284.01881791 446.09320213 -287.203125 445.3515625 C-290.07386288 445.11019176 -290.07386288 445.11019176 -292.015625 446.4140625 Z " fill="#D03733" transform="translate(338.140625,0.6484375)"/>
<path d="M0 0 C0.71510742 0.16097168 1.43021484 0.32194336 2.16699219 0.48779297 C29.91834844 6.80927259 53.51244054 24.20028763 68.85498047 48.13183594 C84.57534578 73.78050019 89.72863273 105.17598359 82.84082031 134.59399414 C75.7085934 161.95740632 58.16807453 187.52392145 33.82568359 202.32177734 C15.40402981 213.03891165 -2.87026884 218.40898146 -24.25 218.3125 C-25.53471191 218.30758545 -26.81942383 218.3026709 -28.14306641 218.29760742 C-37.14693105 218.18624413 -45.33070035 217.57792124 -54 215 C-55.21945313 214.6596875 -56.43890625 214.319375 -57.6953125 213.96875 C-85.75955904 205.43998514 -109.00641761 185.67393994 -123 160 C-135.388143 135.58215265 -140.1759338 104.57178486 -132 78 C-131.80664062 77.34354492 -131.61328125 76.68708984 -131.4140625 76.01074219 C-126.68757001 60.23388531 -119.17974204 46.16830444 -108 34 C-107.55817383 33.5157959 -107.11634766 33.0315918 -106.66113281 32.53271484 C-79.44655438 3.03605102 -39.12430429 -9.42089298 0 0 Z M-88.875 153.0625 C-90.53185445 155.91597155 -90.38540825 157.73189537 -90 161 C-88.38741301 163.22323574 -86.921311 164.96559731 -85 166.875 C-84.49380127 167.39747314 -83.98760254 167.91994629 -83.46606445 168.45825195 C-82.44906278 169.50459177 -81.42611478 170.54518861 -80.39697266 171.57958984 C-79.22693865 172.76925392 -78.09826618 173.99940712 -76.98046875 175.23828125 C-69.40398716 183.47502268 -54.83585053 194.38444002 -43.30859375 195.1875 C-40.9778495 195.16124217 -40.9778495 195.16124217 -39.125 193.9375 C-37.73786031 191.89584809 -37.73786031 191.89584809 -37.8671875 188.69140625 C-39.12051975 184.60727186 -39.42305413 184.32751298 -42.9375 182.375 C-44.61423513 181.56078156 -46.30256491 180.77013406 -48 180 C-49.75171323 179.14154237 -51.50046697 178.27701741 -53.24609375 177.40625 C-54.07866699 176.99375 -54.91124023 176.58125 -55.76904297 176.15625 C-64.84648251 171.45163699 -72.93247573 163.30743873 -79.1015625 155.2578125 C-80.87819291 152.74163963 -80.87819291 152.74163963 -84.0625 152 C-86.93323788 151.75862926 -86.93323788 151.75862926 -88.875 153.0625 Z " fill="#D03733" transform="translate(135,294)"/>
<path d="M0 0 C4.52626966 2.3024937 7.2863273 5.60560609 8.859375 10.3515625 C10.48321297 16.14663425 9.42456324 20.59296392 6.60546875 25.79296875 C4.69072919 29.1114684 2.69121375 32.37530178 0.6875 35.640625 C-20.35566589 70.05352901 -22.52821528 117.17221515 -13.39453125 155.59765625 C-5.83359164 185.16754516 7.87054568 210.09030474 29.859375 231.3515625 C28.3128664 234.4445797 25.27014899 234.80231313 22.171875 235.9140625 C15.6261486 238.34982876 10.05660352 241.49964176 4.42895508 245.63110352 C2.78515625 246.7890625 2.78515625 246.7890625 -0.140625 248.3515625 C-8.93717587 246.34138177 -15.957948 232.71759089 -20.6015625 225.4453125 C-37.38683546 198.56820107 -47.06361413 169.74250428 -51.140625 138.3515625 C-51.2950708 137.17883789 -51.2950708 137.17883789 -51.45263672 135.98242188 C-52.04593672 131.44222404 -52.60745404 126.89919715 -53.140625 122.3515625 C-86.9485669 143.18829404 -118.15361558 169.64199118 -142.140625 201.3515625 C-142.5634375 201.90682617 -142.98625 202.46208984 -143.421875 203.03417969 C-164.6287406 231.08357302 -178.84887343 264.02898985 -186.140625 298.3515625 C-192.09698387 297.25913328 -197.92793721 295.90086366 -203.765625 294.2890625 C-208.920809 292.88405288 -213.81930522 291.78595595 -219.140625 291.3515625 C-218.53125599 285.20118688 -217.25182099 279.52688779 -215.515625 273.6015625 C-215.24621094 272.68181641 -214.97679687 271.76207031 -214.69921875 270.81445312 C-213.85995077 267.98917544 -213.00365606 265.16966392 -212.140625 262.3515625 C-211.89602539 261.54138672 -211.65142578 260.73121094 -211.39941406 259.89648438 C-204.4292248 237.2173611 -193.35239192 215.02704167 -180.140625 195.3515625 C-179.73424805 194.74393066 -179.32787109 194.13629883 -178.90917969 193.51025391 C-162.04027414 168.55974477 -140.88562587 144.8806876 -117.140625 126.3515625 C-115.28371753 124.77144442 -113.42971024 123.18791384 -111.578125 121.6015625 C-95.73846599 108.3881682 -78.2992529 97.13547974 -60.828125 86.2265625 C-59.90153076 85.64519531 -58.97493652 85.06382813 -58.02026367 84.46484375 C-57.1563501 83.92988281 -56.29243652 83.39492187 -55.40234375 82.84375 C-54.62850342 82.36276855 -53.85466309 81.88178711 -53.05737305 81.38623047 C-51.140625 80.3515625 -51.140625 80.3515625 -49.140625 80.3515625 C-49.140625 77.7115625 -49.140625 75.0715625 -49.140625 72.3515625 C-49.65109375 72.78726563 -50.1615625 73.22296875 -50.6875 73.671875 C-70.04222551 89.52627781 -94.39529328 92.86406229 -118.63134766 90.50390625 C-145.41510935 87.40115696 -169.76502182 75.90317857 -190.140625 58.3515625 C-190.89601562 57.72894531 -191.65140625 57.10632812 -192.4296875 56.46484375 C-201.38120489 48.88220101 -209.04171181 39.37260636 -215.140625 29.3515625 C-215.140625 28.6915625 -215.140625 28.0315625 -215.140625 27.3515625 C-207.68183662 25.21592173 -200.22158877 23.08545901 -192.75959492 20.96104908 C-189.29224672 19.97374107 -185.82536657 18.9848573 -182.35961914 17.99194336 C-105.09168302 -4.13803489 -105.09168302 -4.13803489 -75.140625 10.3515625 C-60.78448366 18.51267644 -47.85405651 31.08898992 -43.140625 47.3515625 C-42.480625 47.3515625 -41.820625 47.3515625 -41.140625 47.3515625 C-40.90601563 46.07925781 -40.67140625 44.80695312 -40.4296875 43.49609375 C-39.19505276 37.96618422 -36.99306242 33.11306281 -34.515625 28.0390625 C-33.84901855 26.66137695 -33.84901855 26.66137695 -33.16894531 25.25585938 C-18.02736616 -5.46084449 -18.02736616 -5.46084449 0 0 Z " fill="#649B34" transform="translate(338.140625,0.6484375)"/>
</svg>
